<svg width="1268" height="52" viewBox="0 0 1268 52" fill="none" xmlns="http://www.w3.org/2000/svg">
<path fill-rule="evenodd" clip-rule="evenodd" d="M1223.83 2.28491C1223.57 0.927761 1222.27 0.0334931 1220.91 0.287504C1219.55 0.541514 1218.66 1.84761 1218.91 3.20476C1219.25 5.0152 1220.29 6.43451 1221.19 7.46071C1221.66 7.98769 1222.15 8.4748 1222.56 8.89104L1222.67 8.99569C1223.06 9.38526 1223.38 9.69943 1223.65 9.99978C1226.56 13.2154 1230.11 16.0542 1233.42 18.447C1237.75 21.5638 1242.23 24.321 1246.87 26.7419H3C1.34315 26.7419 0 28.085 0 29.7419C0 31.3987 1.34315 32.7419 3 32.7419H1238.11C1231.18 34.8701 1224.47 37.7959 1218 40.6157C1215.97 41.5013 1213.96 42.3765 1211.98 43.2133C1209.02 44.462 1206.09 45.7796 1203.3 47.27C1202.09 47.9206 1201.63 49.4353 1202.28 50.6531C1202.93 51.8709 1204.44 52.3306 1205.66 51.68C1208.26 50.292 1211.03 49.0417 1213.92 47.8198C1216.02 46.9342 1218.1 46.0267 1220.18 45.1225L1220.2 45.1164C1230.08 40.8128 1239.8 36.5824 1250.04 35.1134C1253.1 34.6731 1256.19 34.7368 1259.47 34.8045C1260.71 34.83 1261.97 34.856 1263.27 34.856C1264.26 34.856 1265.24 34.825 1265.94 34.6242C1266.13 34.569 1266.51 34.4443 1266.89 34.1607C1267.31 33.8508 1267.96 33.1532 1267.96 32.0506C1267.95 31.0975 1267.44 30.4828 1267.23 30.2656C1266.99 30.0078 1266.74 29.8392 1266.6 29.7486C1266.09 29.4261 1265.37 29.1614 1264.88 28.9875C1264.64 28.8994 1264.27 28.7705 1263.9 28.6448C1263.59 28.5369 1263.29 28.4313 1263.08 28.3559C1253.54 24.9588 1244.63 20.3638 1236.35 14.3918C1233.15 12.084 1229.93 9.48272 1227.36 6.64548C1226.99 6.23807 1226.58 5.82623 1226.2 5.45935L1226.2 5.45851L1226.09 5.34128C1225.66 4.92341 1225.29 4.54263 1224.95 4.15595C1224.24 3.35482 1223.92 2.76375 1223.83 2.28491Z" fill="#E3F7F3"/>
</svg>
