<svg width="1268" height="52" viewBox="0 0 1268 52" fill="none" xmlns="http://www.w3.org/2000/svg">
<path fill-rule="evenodd" clip-rule="evenodd" d="M1223.83 2.28495C1223.57 0.927801 1222.27 0.0335333 1220.91 0.287544C1219.55 0.541554 1218.66 1.84765 1218.91 3.2048C1219.25 5.01524 1220.29 6.43455 1221.19 7.46075C1221.66 7.98773 1222.15 8.47484 1222.56 8.89108L1222.67 8.99573C1223.06 9.3853 1223.38 9.69947 1223.65 9.99982C1226.56 13.2154 1230.11 16.0543 1233.42 18.4471C1237.75 21.5638 1242.23 24.321 1246.87 26.7419H3H0V32.7419H3H1238.11C1231.18 34.8702 1224.47 37.7959 1218 40.6157C1215.97 41.5014 1213.96 42.3766 1211.98 43.2133C1209.02 44.462 1206.09 45.7796 1203.3 47.27C1202.09 47.9207 1201.63 49.4353 1202.28 50.6531C1202.93 51.8709 1204.44 52.3307 1205.66 51.68C1208.26 50.2921 1211.03 49.0417 1213.92 47.8199C1216.02 46.9342 1218.1 46.0268 1220.18 45.1225L1220.2 45.1165C1230.08 40.8128 1239.8 36.5824 1250.04 35.1134C1253.1 34.6732 1256.19 34.7368 1259.47 34.8045C1260.71 34.83 1261.97 34.8561 1263.27 34.8561C1264.26 34.8561 1265.24 34.8251 1265.94 34.6242C1266.13 34.5691 1266.51 34.4444 1266.89 34.1607C1267.31 33.8509 1267.96 33.1532 1267.96 32.0506C1267.95 31.0976 1267.44 30.4829 1267.23 30.2657C1266.99 30.0078 1266.74 29.8392 1266.6 29.7487C1266.09 29.4261 1265.37 29.1614 1264.88 28.9875C1264.64 28.8995 1264.27 28.7706 1263.9 28.6448C1263.59 28.5369 1263.29 28.4314 1263.08 28.3559C1253.54 24.9588 1244.63 20.3638 1236.35 14.3919C1233.15 12.0841 1229.93 9.48276 1227.36 6.64552C1226.99 6.23811 1226.58 5.82627 1226.2 5.45939L1226.2 5.45855L1226.09 5.34132C1225.66 4.92345 1225.29 4.54267 1224.95 4.15599C1224.24 3.35486 1223.92 2.76379 1223.83 2.28495Z" fill="#E3F7F3"/>
</svg>
