<svg width="1359" height="52" viewBox="0 0 1359 52" fill="none" xmlns="http://www.w3.org/2000/svg">
<path fill-rule="evenodd" clip-rule="evenodd" d="M1310.91 2.00498C1310.64 0.651661 1309.32 -0.223576 1307.97 0.0500852C1306.61 0.323746 1305.74 1.64267 1306.01 2.996C1306.39 4.84608 1307.53 6.27497 1308.49 7.28737C1308.99 7.81212 1309.51 8.29731 1309.97 8.71335L1310.08 8.81834L1310.08 8.81949C1310.51 9.20807 1310.85 9.52379 1311.14 9.82571C1314.28 13.0339 1318.1 15.8659 1321.68 18.2543C1326.32 21.3505 1331.13 24.0905 1336.1 26.4976H-8C-9.65685 26.4976 -11 27.8407 -11 29.4976C-11 31.1544 -9.65685 32.4976 -8 32.4976H1326.61C1319.16 34.6163 1311.95 37.526 1304.98 40.3392C1302.78 41.2262 1300.61 42.1036 1298.46 42.9435C1295.26 44.1907 1292.11 45.5046 1289.11 46.9897C1287.87 47.6017 1287.37 49.1012 1287.98 50.3388C1288.59 51.5765 1290.09 52.0836 1291.33 51.4716C1294.14 50.0784 1297.14 48.8244 1300.28 47.6008C1302.54 46.7173 1304.79 45.8108 1307.03 44.9067L1307.04 44.9044C1317.72 40.6001 1328.27 36.3486 1339.38 34.8726C1342.73 34.428 1346.11 34.4925 1349.67 34.5605C1351 34.5858 1352.35 34.6117 1353.73 34.6117C1354.82 34.6117 1355.82 34.5785 1356.51 34.3933C1356.7 34.3436 1357.07 34.2309 1357.45 33.9694C1357.85 33.698 1358.6 32.9966 1358.59 31.8049C1358.59 30.7806 1358 30.1459 1357.8 29.952C1357.55 29.704 1357.3 29.5443 1357.15 29.4599C1356.63 29.1542 1355.88 28.8992 1355.35 28.7236C1355.23 28.6843 1355.09 28.6381 1354.94 28.5882C1354.74 28.5241 1354.52 28.4539 1354.3 28.3844C1353.97 28.2771 1353.64 28.1714 1353.4 28.0923C1343.07 24.6858 1333.42 20.0792 1324.46 14.0959C1320.99 11.7836 1317.5 9.17554 1314.72 6.33087C1314.33 5.92649 1313.88 5.51772 1313.48 5.15143L1313.48 5.14748L1313.35 5.03029C1312.89 4.61222 1312.48 4.22951 1312.11 3.8406C1311.34 3.02567 1311 2.44418 1310.91 2.00498Z" fill="#E3F7F3"/>
</svg>
