<svg width="12" height="24" viewBox="0 0 12 24" fill="none" xmlns="http://www.w3.org/2000/svg">
<path fill-rule="evenodd" clip-rule="evenodd" d="M0.48587 15.0035C0.169839 14.9515 -0.0442088 14.6531 0.00778104 14.3371C0.0597709 14.0211 0.358111 13.807 0.674142 13.859C1.079 13.9256 1.40341 14.132 1.64563 14.3195C1.76844 14.4146 1.88196 14.5144 1.9786 14.6001L2.00277 14.6215C2.09326 14.7017 2.16561 14.7659 2.23479 14.8209C2.98281 15.4156 3.64358 16.1412 4.20035 16.8196C4.88418 17.6529 5.49397 18.5161 6.03411 19.4086L6.03411 0.695899C6.03411 0.311565 6.34567 -3.06911e-07 6.73001 -2.94178e-07C7.11434 -2.81445e-07 7.42591 0.311565 7.42591 0.695899L7.4259 18.1575C7.92969 16.6065 8.67132 15.1118 9.37939 13.6847C9.5842 13.272 9.78621 12.8649 9.97883 12.4637C10.2692 11.8589 10.5764 11.2594 10.9243 10.6871C11.0907 10.4134 11.4474 10.3264 11.7211 10.4928C11.9947 10.6591 12.0817 11.0159 11.9154 11.2896C11.5956 11.8156 11.3071 12.3769 11.0244 12.9657C10.817 13.3977 10.605 13.8259 10.3941 14.2517L10.3941 14.2517L10.3941 14.2518C9.3961 16.2675 8.42427 18.2303 8.08673 20.2972C7.98669 20.9098 8.00104 21.5217 8.01663 22.1863L8.01663 22.1864C8.02259 22.4404 8.02873 22.7022 8.02873 22.9747C8.02873 23.0907 8.02581 23.1928 8.0189 23.2799C8.01275 23.3573 8.00099 23.4602 7.96871 23.5581C7.95325 23.605 7.91918 23.6952 7.84487 23.7834C7.76016 23.8839 7.6021 24.0013 7.37845 24C7.18284 23.9988 7.04902 23.9054 6.99179 23.8584C6.92903 23.8069 6.8868 23.7525 6.8633 23.7197C6.78162 23.6057 6.71614 23.4477 6.67641 23.3506C6.65671 23.3025 6.62537 23.223 6.59527 23.1467L6.59524 23.1466C6.56998 23.0826 6.54561 23.0208 6.52975 22.9816C5.74589 21.0474 4.68489 19.2384 3.30376 17.5554C2.77015 16.9051 2.16899 16.2503 1.51295 15.7287C1.41787 15.6531 1.32174 15.5678 1.23664 15.4923L1.23661 15.4923L1.20942 15.4682C1.11257 15.3823 1.02477 15.3056 0.935639 15.2366C0.753978 15.096 0.612045 15.0242 0.48587 15.0035Z" fill="#F7FDFC"/>
</svg>
