<svg width="1440" height="253" viewBox="0 0 1440 253" fill="none" xmlns="http://www.w3.org/2000/svg">
<path fill-rule="evenodd" clip-rule="evenodd" d="M-68.1 22.1069H-111V198.961H-68.1H-8.99993L-8.99994 253L33.9001 245.631C35.1146 245.429 36.3605 245.221 37.637 245.007C82.8162 237.463 166.293 223.524 251 223.524C289.74 223.524 328.222 226.44 366.676 229.353C414.68 232.99 462.64 236.623 511 234.578C554.55 232.736 597.775 226.288 641 219.84C684.225 213.392 727.45 206.944 771 205.102C833.011 202.479 894.362 209.193 955.993 215.939C980.929 218.668 1005.91 221.402 1031 223.524C1118.1 230.893 1203.9 230.893 1291 230.893L1508.1 230.893H1551V54.039L1508.1 54.039L1449 54.039V0.00012207L1406.1 7.36905C1404.89 7.57155 1403.64 7.77961 1402.36 7.99278C1357.18 15.5368 1273.71 29.4758 1189 29.4758C1150.26 29.4758 1111.78 26.5604 1073.32 23.647C1025.32 20.0102 977.36 16.3767 929 18.4224C885.45 20.2647 842.225 26.7125 799 33.1603C755.775 39.6081 712.55 46.0559 669 47.8982C606.989 50.5213 545.638 43.8067 484.007 37.0616C459.071 34.3326 434.089 31.5985 409 29.4758C321.9 22.1069 236.1 22.1069 149 22.1069H-68.1Z" fill="#0F342C"/>
</svg>
