<svg width="1440" height="445" viewBox="0 0 1440 445" fill="none" xmlns="http://www.w3.org/2000/svg">
<path fill-rule="evenodd" clip-rule="evenodd" d="M48 8.86399L0 0V56V63.8208V445H1440V63.8208V56V0L1392 3.5456C1344 7.0912 1248 14.1824 1152 24.8192C1136 26.592 1120 28.4633 1104 30.3346C1024 39.691 944 49.0474 864 46.0928C818.286 44.4044 772.571 38.6961 726.857 32.9877C676.571 26.7086 626.286 20.4294 576 19.5008C525.714 18.5722 475.429 22.9941 425.143 27.4161C379.429 31.436 333.714 35.456 288 35.456C192 35.456 96 17.728 48 8.86399Z" fill="#0F342C"/>
</svg>
