<svg width="1440" height="401" viewBox="0 0 1440 401" fill="none" xmlns="http://www.w3.org/2000/svg">
<path fill-rule="evenodd" clip-rule="evenodd" d="M48 9.80393L0 0.961182V56.7882V64.6289V400.961H1440V64.6289V56.7882V0.961182L1392 4.49828C1344 8.03538 1248 15.1096 1152 25.7209C1136 27.4894 1120 29.3562 1104 31.223C1024 40.557 944 49.891 864 46.9435C818.286 45.2591 772.571 39.5645 726.857 33.8698C676.571 27.6057 626.286 21.3416 576 20.4152C525.714 19.4888 475.429 23.9002 425.143 28.3115C379.429 32.3218 333.714 36.3322 288 36.3322C192 36.3322 96 18.6467 48 9.80393Z" fill="#0F342C"/>
</svg>
