<svg width="1440" height="253" viewBox="0 0 1440 253" fill="none" xmlns="http://www.w3.org/2000/svg">
<path fill-rule="evenodd" clip-rule="evenodd" d="M-34.1101 22.1068H-78.1379V54H-82.874L-82.874 252.961L-38.8462 245.592C-37.5997 245.39 -36.3211 245.182 -35.011 244.968C11.356 237.424 97.0277 223.485 183.961 223.485C223.719 223.485 263.214 226.401 302.679 229.314C351.945 232.951 401.165 236.585 450.797 234.539C495.492 232.697 539.853 226.249 584.214 219.801C628.576 213.353 672.937 206.905 717.632 205.063C781.273 202.44 844.237 209.155 907.489 215.9C933.08 218.629 958.718 221.363 984.467 223.485C1073.86 230.854 1161.91 230.854 1251.3 230.854L1474.11 230.854H1518.14V198.961H1522.87V0L1478.85 7.36893C1477.6 7.5714 1476.32 7.77944 1475.01 7.99258C1428.64 15.5366 1342.97 29.4757 1256.04 29.4757C1216.28 29.4757 1176.79 26.5602 1137.32 23.6469C1088.06 20.0101 1038.84 16.3766 989.203 18.4223C944.508 20.2646 900.147 26.7124 855.786 33.1602C811.424 39.608 767.063 46.0558 722.368 47.898C658.727 50.5212 595.763 43.8066 532.511 37.0615C506.92 34.3324 481.282 31.5984 455.533 29.4757C366.143 22.1068 278.087 22.1068 188.697 22.1068H-34.1101Z" fill="#0F342C"/>
</svg>
