<svg width="1440" height="120" viewBox="0 0 1440 120" fill="none" xmlns="http://www.w3.org/2000/svg">
<path fill-rule="evenodd" clip-rule="evenodd" d="M1440 0H0V66V80V94.7456L24 100.734C48 106.723 96 118.7 144 119.898C187.2 120.976 230.4 113.322 273.6 105.669C278.4 104.819 283.2 103.968 288 103.13C336 94.7456 384 87.5592 432 85.1637C480 82.7683 528 85.1637 576 91.1524C592 93.1486 608 95.5441 624 97.9396C656 102.731 688 107.521 720 109.118C744 110.316 768 109.717 792 109.118C816 108.52 840 107.921 864 109.118C880.941 109.964 897.882 111.705 914.823 113.445C945.882 116.636 976.941 119.828 1008 117.503C1032 115.706 1056 110.616 1080 105.525C1104 100.435 1128 95.3445 1152 93.5479C1189.71 90.7247 1227.43 96.035 1265.14 101.345C1275.43 102.794 1285.71 104.242 1296 105.525C1344 111.514 1392 113.909 1416 115.107L1440 116.305V80V66V0Z" fill="#0F342C"/>
</svg>
