<svg width="1440" height="666" viewBox="0 0 1440 666" fill="none" xmlns="http://www.w3.org/2000/svg">
<path fill-rule="evenodd" clip-rule="evenodd" d="M0 615.424L48 630.647C96 645.871 192 676.319 288 661.095C384 645.871 480 584.976 576 584.976C672 584.976 768 645.871 864 645.871C960 645.871 1056 584.976 1152 565.946C1248 546.916 1344 569.752 1392 581.17L1440 592.588V501.244H1392C1344 501.244 1248 501.244 1152 501.244C1056 501.244 960 501.244 864 501.244C768 501.244 672 501.244 576 501.244C480 501.244 384 501.244 288 501.244C192 501.244 96 501.244 48 501.244H0V615.424Z" fill="#0F342C"/>
<rect y="97.2444" width="1439.99" height="450" fill="#0F342C"/>
<path fill-rule="evenodd" clip-rule="evenodd" d="M1439.96 36.6987L1391.96 25.5593C1343.96 14.4199 1247.97 -7.85896 1151.97 3.28045C1055.97 14.4199 959.978 58.9775 863.982 58.9775C767.986 58.9775 671.99 14.4198 575.993 14.4198C479.997 14.4198 384.001 58.9775 288.005 72.9017C192.009 86.826 96.0128 70.1169 48.0148 61.7623L0.0166073 53.4077L0.0166016 120.244L48.0148 120.244C96.0128 120.244 192.009 120.244 288.005 120.244C384.001 120.244 479.997 120.244 575.993 120.244C671.99 120.244 767.986 120.244 863.982 120.244C959.978 120.244 1055.97 120.244 1151.97 120.244C1247.97 120.244 1343.96 120.244 1391.96 120.244L1439.96 120.244L1439.96 36.6987Z" fill="#0F342C"/>
</svg>
