<svg width="1440" height="1092" viewBox="0 0 1440 1092" fill="none" xmlns="http://www.w3.org/2000/svg">
<path fill-rule="evenodd" clip-rule="evenodd" d="M0 1042.18L48 1057.4C96 1072.63 192 1103.07 288 1087.85C384 1072.63 480 1011.73 576 1011.73C672 1011.73 768 1072.63 864 1072.63C960 1072.63 1056 1011.73 1152 992.702C1248 973.672 1344 996.508 1392 1007.93L1440 1019.34V928H1392C1344 928 1248 928 1152 928C1056 928 960 928 864 928C768 928 672 928 576 928C480 928 384 928 288 928C192 928 96 928 48 928H0V1042.18Z" fill="#0F342C"/>
<rect y="129" width="1440" height="844" fill="#0F342C"/>
<path fill-rule="evenodd" clip-rule="evenodd" d="M1440 49.8209L1392 34.597C1344 19.3731 1248 -11.0746 1152 4.14924C1056 19.3731 960 80.2687 864 80.2687C768 80.2687 672 19.3731 576 19.3731C480 19.3731 384 80.2686 288 99.2985C192 118.328 96 95.4925 48 84.0746L7.98549e-06 72.6567L0 164L48 164C96 164 192 164 288 164C384 164 480 164 576 164C672 164 768 164 864 164C960 164 1056 164 1152 164C1248 164 1344 164 1392 164L1440 164L1440 49.8209Z" fill="#0F342C"/>
</svg>
