<svg width="1440" height="388" viewBox="0 0 1440 388" fill="none" xmlns="http://www.w3.org/2000/svg">
<path fill-rule="evenodd" clip-rule="evenodd" d="M1410 147H1440V189V353.435L1405.2 333.86C1371.6 314.284 1303.2 275.133 1234.8 275.133C1176.66 275.133 1119.36 302.452 1062.19 329.706C1050.93 335.078 1039.66 340.448 1028.4 345.605C960 376.926 891.6 400.417 823.2 380.841C791.892 371.881 760.333 353.898 728.752 335.904C691.337 314.584 653.892 293.248 616.8 286.878C567.4 278.395 518 296.461 468.6 314.526C449.6 321.474 430.6 328.422 411.6 333.86C343.2 353.435 274.8 353.435 205.2 333.86C136.8 314.284 68.3999 275.133 34.7999 255.557L0 235.982V189V0L30 28C60 56 120 112 180 122.5C223.333 130.083 266.667 113.934 310 97.7839C326.667 91.5725 343.333 85.3611 360 80.5C420 63 480 63 540 80.5C560 86.3333 580 94.1111 600 101.889C640 117.444 680 133 720 133C755.294 133 790.588 120.889 825.882 108.779C850.588 100.301 875.294 91.8235 900 87.5C960 77 1020 91 1080 105L1080 105C1140 119 1200 133 1260 140C1320 147 1380 147 1410 147Z" fill="#0F342C"/>
</svg>
