<svg width="250" height="150" viewBox="0 0 250 150" fill="none" xmlns="http://www.w3.org/2000/svg">
<path fill-rule="evenodd" clip-rule="evenodd" d="M119.001 2.18743C147.849 2.56928 178.021 -2.13309 200.313 11.565C229.191 29.3096 254.257 54.5973 249.392 82.3093C244.131 112.275 215.245 141.061 176.204 148.879C141.286 155.872 115.099 128.357 83.2398 115.584C54.5423 104.078 14.3948 102.735 3.72936 79.7287C-7.62497 55.2365 8.22516 26.7 33.9971 9.36358C56.3008 -5.6397 89.0055 1.79041 119.001 2.18743Z" fill="#BCECE2"/>
<path d="M34.5798 60V47.7525H36.7173V52.7025H40.6023V47.7525H42.7398V60H40.6023V54.5475H36.7173V60H34.5798ZM45.8827 60V47.745H53.5627V49.59H48.0877V53.13H52.9552V54.87H48.0877V60H45.8827ZM73.7312 60L72.9887 57.1725H69.0887L68.3462 60H66.1112L69.4562 47.7525H72.6212L75.9662 60H73.7312ZM69.5612 55.35H72.5162L72.1262 53.8725C71.7362 52.38 71.4512 51.21 71.0612 49.5375H71.0162C70.6262 51.21 70.3487 52.38 69.9512 53.8725L69.5612 55.35ZM86.4291 60H84.0441L81.9216 55.155H79.9641V60H77.8341V47.7525H82.2441C85.1016 47.7525 86.0991 49.125 86.0991 51.3525C86.0991 53.04 85.4691 54.3075 83.9991 54.855L86.4291 60ZM79.9641 49.5375V53.46H82.0866C83.4516 53.46 83.9541 52.74 83.9541 51.39C83.9541 50.25 83.5116 49.5375 82.1391 49.5375H79.9641ZM96.9821 47.7525V49.6425H93.7271V60H91.5146V49.6425H88.2596V47.7525H96.9821ZM103.53 60.24C101.408 60.24 99.9301 59.43 99.1126 57.5025L100.695 56.445C101.273 57.795 102.218 58.47 103.59 58.47C104.925 58.47 105.578 57.795 105.578 56.835C105.578 55.83 105.09 55.4475 103.778 55.035L102.788 54.7125C100.71 54.045 99.5776 53.025 99.5776 51.015C99.5776 48.9525 101.07 47.5125 103.778 47.5125C105.81 47.5125 107.123 48.2625 107.82 50.175L106.193 51.165C105.758 49.8525 104.88 49.29 103.695 49.29C102.375 49.29 101.805 49.8675 101.805 50.88C101.805 51.7875 102.233 52.305 103.53 52.7325L104.498 53.04C106.86 53.79 107.76 54.705 107.76 56.625C107.76 58.815 106.215 60.24 103.53 60.24ZM125.799 50.4C128.229 50.4 129.466 52.3425 129.466 55.2225C129.466 58.1625 128.116 60.24 125.596 60.24C124.479 60.24 123.624 59.7975 123.076 58.9275V63.465H120.976V50.6325H122.859L122.941 52.0275C123.526 50.8725 124.494 50.4 125.799 50.4ZM125.139 58.5225C126.526 58.5225 127.246 57.285 127.246 55.2825C127.246 53.4 126.631 52.11 125.184 52.11C124.179 52.11 123.399 52.6875 123.076 53.94V56.745C123.406 57.9225 124.119 58.5225 125.139 58.5225ZM135.684 49.7325C134.574 49.7325 133.771 49.185 133.771 48.075C133.771 46.9725 134.574 46.4175 135.684 46.4175C136.801 46.4175 137.611 46.9725 137.611 48.075C137.611 49.185 136.801 49.7325 135.684 49.7325ZM135.684 47.31C135.256 47.31 134.964 47.58 134.964 48.075C134.964 48.585 135.256 48.8475 135.684 48.8475C136.111 48.8475 136.404 48.585 136.404 48.075C136.404 47.58 136.111 47.31 135.684 47.31ZM140.461 58.4325L140.499 59.9325C140.124 60.0675 139.764 60.135 139.284 60.135C138.286 60.135 137.694 59.76 137.484 58.965C136.921 59.8425 135.916 60.24 134.604 60.24C132.631 60.24 131.416 59.1225 131.416 57.4125C131.416 55.7025 132.661 54.66 135.001 54.66C135.946 54.66 136.711 54.825 137.386 55.185V53.9775C137.386 52.575 136.764 52.0275 135.564 52.0275C134.454 52.0275 133.906 52.47 133.771 53.5875L131.746 53.3175C131.986 51.435 133.254 50.4 135.594 50.4C138.144 50.4 139.381 51.5775 139.381 53.91V57.5175C139.381 58.32 139.659 58.5525 140.461 58.4325ZM135.226 58.6875C136.134 58.695 136.809 58.425 137.386 57.7725V56.565C136.801 56.2575 136.179 56.1075 135.399 56.115C134.146 56.1225 133.569 56.5275 133.569 57.3975C133.569 58.245 134.169 58.68 135.226 58.6875ZM160.075 60L159.332 57.1725H155.432L154.69 60H152.455L155.8 47.7525H158.965L162.31 60H160.075ZM155.905 55.35H158.86L158.47 53.8725C158.08 52.38 157.795 51.21 157.405 49.5375H157.36C156.97 51.21 156.692 52.38 156.295 53.8725L155.905 55.35ZM172.84 58.4325L172.878 59.9325C172.503 60.0675 172.143 60.135 171.663 60.135C170.665 60.135 170.073 59.76 169.863 58.965C169.3 59.8425 168.295 60.24 166.983 60.24C165.01 60.24 163.795 59.1225 163.795 57.4125C163.795 55.7025 165.04 54.66 167.38 54.66C168.325 54.66 169.09 54.825 169.765 55.185V53.9775C169.765 52.575 169.143 52.0275 167.943 52.0275C166.833 52.0275 166.285 52.47 166.15 53.5875L164.125 53.3175C164.365 51.435 165.633 50.4 167.973 50.4C170.523 50.4 171.76 51.5775 171.76 53.91V57.5175C171.76 58.32 172.038 58.5525 172.84 58.4325ZM167.605 58.6875C168.513 58.695 169.188 58.425 169.765 57.7725V56.565C169.18 56.2575 168.558 56.1075 167.778 56.115C166.525 56.1225 165.948 56.5275 165.948 57.3975C165.948 58.245 166.548 58.68 167.605 58.6875ZM180.213 50.3925C182.148 50.3925 183.131 51.54 183.131 53.7975C183.131 54.3075 183.071 54.8325 182.951 55.41L180.828 55.62C180.918 55.05 180.971 54.5025 180.971 53.9325C180.971 52.9275 180.708 52.2075 179.598 52.2075C178.653 52.2075 177.843 52.7775 177.438 54.51V60H175.338V50.6325H177.183L177.281 52.4025C177.783 51.12 178.691 50.3925 180.213 50.3925ZM190.699 50.4C192.739 50.4 193.826 51.4875 193.826 53.865V60H191.726V53.9175C191.726 52.83 191.359 52.2075 190.211 52.2075C189.124 52.2075 188.216 52.8375 187.789 54.54V60H185.689V47.0475H187.789V52.1175C188.389 50.9175 189.371 50.4 190.699 50.4ZM202.527 50.64H204.627V60.0075H202.737L202.639 58.335C202.039 59.6625 201.019 60.24 199.594 60.24C197.569 60.24 196.489 59.13 196.489 56.745V50.64H198.589V56.7075C198.589 57.795 198.957 58.425 200.097 58.425C201.154 58.425 202.047 57.9 202.527 56.5125V50.64ZM211.43 60.24C209.427 60.24 207.987 59.61 207.297 58.0425L208.73 57.1875C209.202 58.155 210.035 58.6425 211.46 58.6425C212.75 58.6425 213.462 58.1775 213.462 57.51C213.462 56.85 212.96 56.5725 211.685 56.3025L210.777 56.1075C208.715 55.665 207.56 54.915 207.56 53.1825C207.56 51.5775 208.97 50.4 211.482 50.4C213.5 50.4 214.752 51.03 215.36 52.5225L213.905 53.3775C213.447 52.4175 212.69 52.005 211.407 52.005C210.177 52.005 209.517 52.455 209.517 53.115C209.517 53.6925 209.9 54.06 211.205 54.33L212.105 54.525C214.257 54.975 215.405 55.6125 215.405 57.405C215.405 59.07 213.935 60.24 211.43 60.24ZM95.3171 92L94.5746 89.1725H90.6746L89.9321 92H87.6971L91.0421 79.7525H94.2071L97.5521 92H95.3171ZM91.1471 87.35H94.1021L93.7121 85.8725C93.3221 84.38 93.0371 83.21 92.6471 81.5375H92.6021C92.2121 83.21 91.9346 84.38 91.5371 85.8725L91.1471 87.35ZM105.87 92L102.968 87.77L101.745 89.1725V92H99.6526V79.0475H101.745V86.9075L105.458 82.6325H107.97L104.483 86.4725L108.323 92H105.87ZM118.876 90.4325L118.913 91.9325C118.538 92.0675 118.178 92.135 117.698 92.135C116.701 92.135 116.108 91.76 115.898 90.965C115.336 91.8425 114.331 92.24 113.018 92.24C111.046 92.24 109.831 91.1225 109.831 89.4125C109.831 87.7025 111.076 86.66 113.416 86.66C114.361 86.66 115.126 86.825 115.801 87.185V85.9775C115.801 84.575 115.178 84.0275 113.978 84.0275C112.868 84.0275 112.321 84.47 112.186 85.5875L110.161 85.3175C110.401 83.435 111.668 82.4 114.008 82.4C116.558 82.4 117.796 83.5775 117.796 85.91V89.5175C117.796 90.32 118.073 90.5525 118.876 90.4325ZM113.641 90.6875C114.548 90.695 115.223 90.425 115.801 89.7725V88.565C115.216 88.2575 114.593 88.1075 113.813 88.115C112.561 88.1225 111.983 88.5275 111.983 89.3975C111.983 90.245 112.583 90.68 113.641 90.6875ZM126.909 79.0475H129.009V92H127.186L127.059 90.6125C126.541 91.715 125.574 92.24 124.306 92.24C121.719 92.24 120.481 90.065 120.481 87.2825C120.481 84.515 121.764 82.4 124.426 82.4C125.611 82.4 126.421 82.82 126.909 83.6675V79.0475ZM124.846 90.5225C125.836 90.5225 126.586 89.975 126.909 88.805V85.91C126.601 84.6875 125.904 84.11 124.914 84.11C123.466 84.11 122.746 85.3475 122.746 87.35C122.746 89.3375 123.429 90.5225 124.846 90.5225ZM140.026 86.735C140.026 87.1175 139.996 87.515 139.929 87.92H133.711C133.861 89.5625 134.671 90.5225 136.329 90.5225C137.409 90.5225 138.166 90.1475 138.804 89.3675L139.869 90.5225C138.991 91.685 137.731 92.24 136.141 92.24C133.051 92.24 131.559 90.1625 131.559 87.29C131.559 84.38 133.149 82.4 136.021 82.4C138.654 82.4 140.026 84.0875 140.026 86.735ZM136.006 84.0125C134.521 84.0125 133.914 84.98 133.741 86.3975H137.971C137.994 84.9575 137.469 84.0125 136.006 84.0125ZM149.177 82.4C150.609 82.4 151.157 83.42 151.157 85.28V92H149.267V85.3775C149.267 84.5 149.034 84.1625 148.562 84.1625C148.142 84.1625 147.812 84.41 147.602 85.085V85.28V92H145.704V85.3775C145.704 84.5 145.472 84.1625 145.007 84.1625C144.594 84.1625 144.257 84.395 144.039 85.055V92H142.149V82.6325H143.762L143.814 83.525C144.212 82.7075 144.842 82.4 145.629 82.4C146.522 82.4 147.069 82.7975 147.354 83.5475C147.737 82.715 148.367 82.4 149.177 82.4ZM157.397 81.3725C156.52 81.3725 155.897 80.8025 155.897 79.9775C155.897 79.16 156.52 78.575 157.397 78.575C158.275 78.575 158.897 79.16 158.897 79.9775C158.897 80.8025 158.275 81.3725 157.397 81.3725ZM153.197 92V90.2975H156.355V84.335H153.197V82.6325H158.455V90.2975H161.567V92H153.197Z" fill="#0F342C"/>
</svg>
