<svg width="250" height="150" viewBox="0 0 250 150" fill="none" xmlns="http://www.w3.org/2000/svg">
<path fill-rule="evenodd" clip-rule="evenodd" d="M115.375 1.09894C164.097 -0.543719 223.812 -4.41124 242.49 26.1311C264.238 61.6914 236.228 101.38 190.877 124.554C142.627 149.209 75.0557 161.345 27.7558 135.858C-15.8144 112.381 -0.430342 68.0862 22.0155 33.5644C37.6091 9.58135 76.7533 2.40108 115.375 1.09894Z" fill="#BCECE2"/>
<path d="M27.4793 66.24C25.3568 66.24 23.8793 65.43 23.0618 63.5025L24.6443 62.445C25.2218 63.795 26.1668 64.47 27.5393 64.47C28.8743 64.47 29.5268 63.795 29.5268 62.835C29.5268 61.83 29.0393 61.4475 27.7268 61.035L26.7368 60.7125C24.6593 60.045 23.5268 59.025 23.5268 57.015C23.5268 54.9525 25.0193 53.5125 27.7268 53.5125C29.7593 53.5125 31.0718 54.2625 31.7693 56.175L30.1418 57.165C29.7068 55.8525 28.8293 55.29 27.6443 55.29C26.3243 55.29 25.7543 55.8675 25.7543 56.88C25.7543 57.7875 26.1818 58.305 27.4793 58.7325L28.4468 59.04C30.8093 59.79 31.7093 60.705 31.7093 62.625C31.7093 64.815 30.1643 66.24 27.4793 66.24ZM41.9173 61.4175C42.0223 61.9125 42.0673 62.3625 42.0673 62.79C42.0673 64.875 41.0023 66.24 38.6923 66.24C36.2323 66.24 35.3023 64.7775 35.3023 62.5575V58.335H33.4798V56.6325H35.3023V53.9025L37.3648 53.58V56.6325H41.8648V58.335H37.3648V62.535C37.3648 63.96 37.7473 64.6125 38.7223 64.6125C39.6973 64.6125 40.1548 63.9525 40.1548 62.6475C40.1548 62.2275 40.1023 61.74 40.0423 61.2525L41.9173 61.4175ZM50.9252 56.64H53.0252V66.0075H51.1352L51.0377 64.335C50.4377 65.6625 49.4177 66.24 47.9927 66.24C45.9677 66.24 44.8877 65.13 44.8877 62.745V56.64H46.9877V62.7075C46.9877 63.795 47.3552 64.425 48.4952 64.425C49.5527 64.425 50.4452 63.9 50.9252 62.5125V56.64ZM61.6507 53.0475H63.7507V66H61.9282L61.8007 64.6125C61.2832 65.715 60.3157 66.24 59.0482 66.24C56.4607 66.24 55.2232 64.065 55.2232 61.2825C55.2232 58.515 56.5057 56.4 59.1682 56.4C60.3532 56.4 61.1632 56.82 61.6507 57.6675V53.0475ZM59.5882 64.5225C60.5782 64.5225 61.3282 63.975 61.6507 62.805V59.91C61.3432 58.6875 60.6457 58.11 59.6557 58.11C58.2082 58.11 57.4882 59.3475 57.4882 61.35C57.4882 63.3375 58.1707 64.5225 59.5882 64.5225ZM74.7687 60.735C74.7687 61.1175 74.7387 61.515 74.6712 61.92H68.4537C68.6037 63.5625 69.4137 64.5225 71.0712 64.5225C72.1512 64.5225 72.9087 64.1475 73.5462 63.3675L74.6112 64.5225C73.7337 65.685 72.4737 66.24 70.8837 66.24C67.7937 66.24 66.3012 64.1625 66.3012 61.29C66.3012 58.38 67.8912 56.4 70.7637 56.4C73.3962 56.4 74.7687 58.0875 74.7687 60.735ZM70.7487 58.0125C69.2637 58.0125 68.6562 58.98 68.4837 60.3975H72.7137C72.7362 58.9575 72.2112 58.0125 70.7487 58.0125ZM82.2391 56.4C84.2941 56.4 85.3966 57.495 85.3966 59.8875V66H83.2966V59.925C83.2966 58.8375 82.9216 58.2075 81.7741 58.2075C80.6791 58.2075 79.7791 58.8525 79.3591 60.5325V66H77.2591V56.6325H79.1491L79.2316 58.275C79.8391 56.9625 80.8441 56.4 82.2391 56.4ZM95.8821 61.4175C95.9871 61.9125 96.0321 62.3625 96.0321 62.79C96.0321 64.875 94.9671 66.24 92.6571 66.24C90.1971 66.24 89.2671 64.7775 89.2671 62.5575V58.335H87.4446V56.6325H89.2671V53.9025L91.3296 53.58V56.6325H95.8296V58.335H91.3296V62.535C91.3296 63.96 91.7121 64.6125 92.6871 64.6125C93.6621 64.6125 94.1196 63.9525 94.1196 62.6475C94.1196 62.2275 94.0671 61.74 94.0071 61.2525L95.8821 61.4175ZM107.148 60.735C107.148 61.1175 107.118 61.515 107.05 61.92H100.833C100.983 63.5625 101.793 64.5225 103.45 64.5225C104.53 64.5225 105.288 64.1475 105.925 63.3675L106.99 64.5225C106.113 65.685 104.853 66.24 103.263 66.24C100.173 66.24 98.6801 64.1625 98.6801 61.29C98.6801 58.38 100.27 56.4 103.143 56.4C105.775 56.4 107.148 58.0875 107.148 60.735ZM103.128 58.0125C101.643 58.0125 101.035 58.98 100.863 60.3975H105.093C105.115 58.9575 104.59 58.0125 103.128 58.0125ZM114.956 56.3925C116.891 56.3925 117.873 57.54 117.873 59.7975C117.873 60.3075 117.813 60.8325 117.693 61.41L115.571 61.62C115.661 61.05 115.713 60.5025 115.713 59.9325C115.713 58.9275 115.451 58.2075 114.341 58.2075C113.396 58.2075 112.586 58.7775 112.181 60.51V66H110.081V56.6325H111.926L112.023 58.4025C112.526 57.12 113.433 56.3925 114.956 56.3925ZM127.091 56.4C128.524 56.4 129.071 57.42 129.071 59.28V66H127.181V59.3775C127.181 58.5 126.949 58.1625 126.476 58.1625C126.056 58.1625 125.726 58.41 125.516 59.085V59.28V66H123.619V59.3775C123.619 58.5 123.386 58.1625 122.921 58.1625C122.509 58.1625 122.171 58.395 121.954 59.055V66H120.064V56.6325H121.676L121.729 57.525C122.126 56.7075 122.756 56.4 123.544 56.4C124.436 56.4 124.984 56.7975 125.269 57.5475C125.651 56.715 126.281 56.4 127.091 56.4ZM139.526 60.735C139.526 61.1175 139.496 61.515 139.429 61.92H133.211C133.361 63.5625 134.171 64.5225 135.829 64.5225C136.909 64.5225 137.666 64.1475 138.304 63.3675L139.369 64.5225C138.491 65.685 137.231 66.24 135.641 66.24C132.551 66.24 131.059 64.1625 131.059 61.29C131.059 58.38 132.649 56.4 135.521 56.4C138.154 56.4 139.526 58.0875 139.526 60.735ZM135.506 58.0125C134.021 58.0125 133.414 58.98 133.241 60.3975H137.471C137.494 58.9575 136.969 58.0125 135.506 58.0125ZM147.994 53.0475H150.094V66H148.272L148.144 64.6125C147.627 65.715 146.659 66.24 145.392 66.24C142.804 66.24 141.567 64.065 141.567 61.2825C141.567 58.515 142.849 56.4 145.512 56.4C146.697 56.4 147.507 56.82 147.994 57.6675V53.0475ZM145.932 64.5225C146.922 64.5225 147.672 63.975 147.994 62.805V59.91C147.687 58.6875 146.989 58.11 145.999 58.11C144.552 58.11 143.832 59.3475 143.832 61.35C143.832 63.3375 144.514 64.5225 145.932 64.5225ZM157.82 56.4C159.86 56.4 160.947 57.4875 160.947 59.865V66H158.847V59.9175C158.847 58.83 158.48 58.2075 157.332 58.2075C156.245 58.2075 155.337 58.8375 154.91 60.54V66H152.81V53.0475H154.91V58.1175C155.51 56.9175 156.492 56.4 157.82 56.4ZM169.61 55.3725C168.733 55.3725 168.118 54.81 168.118 53.9775C168.118 53.16 168.733 52.575 169.61 52.575C170.495 52.575 171.11 53.16 171.11 53.9775C171.11 54.81 170.495 55.3725 169.61 55.3725ZM167.098 69.6C164.54 69.6 163.513 68.2125 163.513 66.0675C163.513 65.61 163.588 65.13 163.738 64.59L165.785 64.4325C165.643 64.95 165.568 65.43 165.568 65.925C165.568 67.35 166.115 67.965 167.098 67.965C168.313 67.965 168.628 67.1475 168.628 65.9175V58.335H163.7V56.6325H170.705V65.865C170.705 68.3025 169.58 69.6 167.098 69.6ZM181.723 63.3075L182.953 63.63C182.653 65.4825 181.821 66.24 180.411 66.24C179.346 66.24 178.641 65.76 178.183 64.95C177.823 65.7975 177.103 66.24 176.166 66.24C174.688 66.24 173.751 65.235 173.751 63.4725C173.751 61.725 174.628 60.6825 176.053 60.6825C176.631 60.6825 177.081 60.8325 177.456 61.1175V59.88C177.456 58.5075 177.231 57.8775 176.593 57.8775C176.016 57.8775 175.753 58.3425 175.678 59.52L173.968 59.25C174.133 57.435 174.928 56.4 176.488 56.4C177.388 56.4 178.071 56.7225 178.393 57.5025C178.753 56.73 179.428 56.4 180.321 56.4C182.091 56.4 182.946 58.0575 182.946 60.72C182.946 61.11 182.923 61.47 182.871 61.845H179.166C179.241 63.6375 179.661 64.6125 180.568 64.6125C181.153 64.6125 181.483 64.26 181.723 63.3075ZM180.276 57.9225C179.593 57.9225 179.241 58.92 179.173 60.4125H181.153C181.161 58.9275 180.921 57.9225 180.276 57.9225ZM176.563 64.755C177.216 64.755 177.643 64.3125 177.523 62.6775C177.238 62.2725 176.916 62.1 176.518 62.1075C175.956 62.115 175.626 62.5575 175.641 63.3975C175.648 64.2525 175.918 64.755 176.563 64.755ZM185.076 66V64.2975H188.234V54.7575H185.076V53.0475H190.334V64.2975H193.446V66H185.076ZM200.849 56.4C203.279 56.4 204.517 58.3425 204.517 61.2225C204.517 64.1625 203.167 66.24 200.647 66.24C199.529 66.24 198.674 65.7975 198.127 64.9275V69.465H196.027V56.6325H197.909L197.992 58.0275C198.577 56.8725 199.544 56.4 200.849 56.4ZM200.189 64.5225C201.577 64.5225 202.297 63.285 202.297 61.2825C202.297 59.4 201.682 58.11 200.234 58.11C199.229 58.11 198.449 58.6875 198.127 59.94V62.745C198.457 63.9225 199.169 64.5225 200.189 64.5225ZM215.077 60.735C215.077 61.1175 215.047 61.515 214.98 61.92H208.762C208.912 63.5625 209.722 64.5225 211.38 64.5225C212.46 64.5225 213.217 64.1475 213.855 63.3675L214.92 64.5225C214.042 65.685 212.782 66.24 211.192 66.24C208.102 66.24 206.61 64.1625 206.61 61.29C206.61 58.38 208.2 56.4 211.072 56.4C213.705 56.4 215.077 58.0875 215.077 60.735ZM211.057 58.0125C209.572 58.0125 208.965 58.98 208.792 60.3975H213.022C213.045 58.9575 212.52 58.0125 211.057 58.0125ZM222.885 56.3925C224.82 56.3925 225.803 57.54 225.803 59.7975C225.803 60.3075 225.743 60.8325 225.623 61.41L223.5 61.62C223.59 61.05 223.643 60.5025 223.643 59.9325C223.643 58.9275 223.38 58.2075 222.27 58.2075C221.325 58.2075 220.515 58.7775 220.11 60.51V66H218.01V56.6325H219.855L219.953 58.4025C220.455 57.12 221.363 56.3925 222.885 56.3925ZM43.5713 87.3725C42.6937 87.3725 42.0713 86.8025 42.0713 85.9775C42.0713 85.16 42.6937 84.575 43.5713 84.575C44.4487 84.575 45.0713 85.16 45.0713 85.9775C45.0713 86.8025 44.4487 87.3725 43.5713 87.3725ZM39.3713 98V96.2975H42.5288V90.335H39.3713V88.6325H44.6288V96.2975H47.7413V98H39.3713ZM61.1072 98V96.2525H64.0697V87.5H61.1072V85.7525H69.1772V87.5H66.2147V96.2525H69.1772V98H61.1072ZM71.8852 98V85.7525H75.5827C78.9802 85.7525 80.4427 87.6425 80.4427 91.88C80.4427 96.11 78.9802 98 75.5827 98H71.8852ZM74.0602 96.185H75.5227C77.0152 96.185 78.1777 95.615 78.1777 91.88C78.1777 88.1375 77.0152 87.5675 75.5227 87.5675H74.0602V96.185ZM89.4206 98L88.6781 95.1725H84.7781L84.0356 98H81.8006L85.1456 85.7525H88.3106L91.6556 98H89.4206ZM85.2506 93.35H88.2056L87.8156 91.8725C87.4256 90.38 87.1406 89.21 86.7506 87.5375H86.7056C86.3156 89.21 86.0381 90.38 85.6406 91.8725L85.2506 93.35ZM104.924 98V85.7525H107.114V96.1475H112.649V98H104.924ZM123.337 92.735C123.337 93.1175 123.307 93.515 123.24 93.92H117.022C117.172 95.5625 117.982 96.5225 119.64 96.5225C120.72 96.5225 121.477 96.1475 122.115 95.3675L123.18 96.5225C122.302 97.685 121.042 98.24 119.452 98.24C116.362 98.24 114.87 96.1625 114.87 93.29C114.87 90.38 116.46 88.4 119.332 88.4C121.965 88.4 123.337 90.0875 123.337 92.735ZM119.317 90.0125C117.832 90.0125 117.225 90.98 117.052 92.3975H121.282C121.305 90.9575 120.78 90.0125 119.317 90.0125ZM131.805 85.0475H133.905V98H132.083L131.955 96.6125C131.438 97.715 130.47 98.24 129.203 98.24C126.615 98.24 125.378 96.065 125.378 93.2825C125.378 90.515 126.66 88.4 129.323 88.4C130.508 88.4 131.317 88.82 131.805 89.6675V85.0475ZM129.743 96.5225C130.732 96.5225 131.483 95.975 131.805 94.805V91.91C131.498 90.6875 130.8 90.11 129.81 90.11C128.363 90.11 127.642 91.3475 127.642 93.35C127.642 95.3375 128.325 96.5225 129.743 96.5225ZM144.923 92.735C144.923 93.1175 144.893 93.515 144.825 93.92H138.608C138.758 95.5625 139.568 96.5225 141.225 96.5225C142.305 96.5225 143.063 96.1475 143.7 95.3675L144.765 96.5225C143.888 97.685 142.628 98.24 141.038 98.24C137.948 98.24 136.455 96.1625 136.455 93.29C136.455 90.38 138.045 88.4 140.918 88.4C143.55 88.4 144.923 90.0875 144.923 92.735ZM140.903 90.0125C139.418 90.0125 138.81 90.98 138.638 92.3975H142.868C142.89 90.9575 142.365 90.0125 140.903 90.0125ZM152.731 88.3925C154.666 88.3925 155.648 89.54 155.648 91.7975C155.648 92.3075 155.588 92.8325 155.468 93.41L153.346 93.62C153.436 93.05 153.488 92.5025 153.488 91.9325C153.488 90.9275 153.226 90.2075 152.116 90.2075C151.171 90.2075 150.361 90.7775 149.956 92.51V98H147.856V88.6325H149.701L149.798 90.4025C150.301 89.12 151.208 88.3925 152.731 88.3925ZM162.579 87.95V88.6325H166.036V90.3275H162.579V96.305H166.036V98H158.154V96.305H160.479V90.3275H158.154V88.6325H160.479V87.875C160.479 85.9175 161.874 84.8 164.146 84.8C165.001 84.8 165.736 84.935 166.404 85.2275L165.901 86.825C165.391 86.6 164.934 86.495 164.334 86.495C163.059 86.495 162.579 87.005 162.579 87.95ZM173.072 98.24C170.207 98.24 168.572 96.3725 168.572 93.3125C168.572 90.26 170.207 88.4 173.072 88.4C175.937 88.4 177.564 90.26 177.564 93.3125C177.564 96.3725 175.937 98.24 173.072 98.24ZM173.072 96.5825C174.549 96.5825 175.344 95.5925 175.344 93.3125C175.344 91.1 174.549 90.0575 173.072 90.0575C171.587 90.0575 170.799 91.1 170.799 93.3125C170.799 95.5925 171.587 96.5825 173.072 96.5825ZM185.11 88.3925C187.045 88.3925 188.027 89.54 188.027 91.7975C188.027 92.3075 187.967 92.8325 187.847 93.41L185.725 93.62C185.815 93.05 185.867 92.5025 185.867 91.9325C185.867 90.9275 185.605 90.2075 184.495 90.2075C183.55 90.2075 182.74 90.7775 182.335 92.51V98H180.235V88.6325H182.08L182.177 90.4025C182.68 89.12 183.587 88.3925 185.11 88.3925ZM196.63 88.64H198.73V98.0075H196.84L196.743 96.335C196.143 97.6625 195.123 98.24 193.698 98.24C191.673 98.24 190.593 97.13 190.593 94.745V88.64H192.693V94.7075C192.693 95.795 193.06 96.425 194.2 96.425C195.258 96.425 196.15 95.9 196.63 94.5125V88.64ZM208.038 88.4C209.471 88.4 210.018 89.42 210.018 91.28V98H208.128V91.3775C208.128 90.5 207.896 90.1625 207.423 90.1625C207.003 90.1625 206.673 90.41 206.463 91.085V91.28V98H204.566V91.3775C204.566 90.5 204.333 90.1625 203.868 90.1625C203.456 90.1625 203.118 90.395 202.901 91.055V98H201.011V88.6325H202.623L202.676 89.525C203.073 88.7075 203.703 88.4 204.491 88.4C205.383 88.4 205.931 88.7975 206.216 89.5475C206.598 88.715 207.228 88.4 208.038 88.4Z" fill="#0F342C"/>
</svg>
