<svg width="250" height="151" viewBox="0 0 250 151" fill="none" xmlns="http://www.w3.org/2000/svg">
<path fill-rule="evenodd" clip-rule="evenodd" d="M133.795 1.20986C163.793 -1.21139 196.346 0.0558377 218.858 15.2073C242.273 30.9672 250.896 55.7133 249.927 79.374C248.988 102.304 237.474 125.333 213.758 139.694C191.855 152.957 161.876 150.134 133.795 149.694C106.611 149.268 79.3912 148.969 57.0864 137.239C29.9182 122.952 -1.76403 104.318 0.0766031 79.374C1.89821 54.6877 39.2679 42.7558 65.1758 27.6115C86.2749 15.2781 107.254 3.35207 133.795 1.20986Z" fill="#BCECE2"/>
<path d="M40.6898 76.2444V63.9969H43.4648L44.5073 67.8144C44.7623 68.7369 45.0098 69.6894 45.2273 70.6569H45.2498C45.4673 69.6894 45.7148 68.7369 45.9698 67.8144L47.0123 63.9969H49.7873V76.2444H47.9423V66.4419H47.9348C47.6723 67.4244 47.4773 68.1219 47.2073 69.0594L45.9023 73.5594H44.5748L43.2698 69.0594C42.9998 68.1219 42.8048 67.4244 42.5423 66.4419H42.5348V76.2444H40.6898ZM57.9252 66.8844H60.0252V76.2519H58.1352L58.0377 74.5794C57.4377 75.9069 56.4177 76.4844 54.9927 76.4844C52.9677 76.4844 51.8877 75.3744 51.8877 72.9894V66.8844H53.9877V72.9519C53.9877 74.0394 54.3552 74.6694 55.4952 74.6694C56.5527 74.6694 57.4452 74.1444 57.9252 72.7569V66.8844ZM62.5607 76.2444V74.5419H65.7182V65.0019H62.5607V63.2919H67.8182V74.5419H70.9307V76.2444H62.5607ZM81.2962 71.6619C81.4012 72.1569 81.4462 72.6069 81.4462 73.0344C81.4462 75.1194 80.3812 76.4844 78.0712 76.4844C75.6112 76.4844 74.6812 75.0219 74.6812 72.8019V68.5794H72.8587V66.8769H74.6812V64.1469L76.7437 63.8244V66.8769H81.2437V68.5794H76.7437V72.7794C76.7437 74.2044 77.1262 74.8569 78.1012 74.8569C79.0762 74.8569 79.5337 74.1969 79.5337 72.8919C79.5337 72.4719 79.4812 71.9844 79.4212 71.4969L81.2962 71.6619ZM88.3466 65.6169C87.4691 65.6169 86.8466 65.0469 86.8466 64.2219C86.8466 63.4044 87.4691 62.8194 88.3466 62.8194C89.2241 62.8194 89.8466 63.4044 89.8466 64.2219C89.8466 65.0469 89.2241 65.6169 88.3466 65.6169ZM84.1466 76.2444V74.5419H87.3041V68.5794H84.1466V66.8769H89.4041V74.5419H92.5166V76.2444H84.1466ZM101.712 66.6444C103.145 66.6444 103.692 67.6644 103.692 69.5244V76.2444H101.802V69.6219C101.802 68.7444 101.57 68.4069 101.097 68.4069C100.677 68.4069 100.347 68.6544 100.137 69.3294V69.5244V76.2444H98.2396V69.6219C98.2396 68.7444 98.0071 68.4069 97.5421 68.4069C97.1296 68.4069 96.7921 68.6394 96.5746 69.2994V76.2444H94.6846V66.8769H96.2971L96.3496 67.7694C96.7471 66.9519 97.3771 66.6444 98.1646 66.6444C99.0571 66.6444 99.6046 67.0419 99.8896 67.7919C100.272 66.9594 100.902 66.6444 101.712 66.6444ZM114.148 70.9794C114.148 71.3619 114.118 71.7594 114.05 72.1644H107.833C107.983 73.8069 108.793 74.7669 110.45 74.7669C111.53 74.7669 112.288 74.3919 112.925 73.6119L113.99 74.7669C113.113 75.9294 111.853 76.4844 110.263 76.4844C107.173 76.4844 105.68 74.4069 105.68 71.5344C105.68 68.6244 107.27 66.6444 110.143 66.6444C112.775 66.6444 114.148 68.3319 114.148 70.9794ZM110.128 68.2569C108.643 68.2569 108.035 69.2244 107.863 70.6419H112.093C112.115 69.2019 111.59 68.2569 110.128 68.2569ZM122.616 63.2919H124.716V76.2444H122.893L122.766 74.8569C122.248 75.9594 121.281 76.4844 120.013 76.4844C117.426 76.4844 116.188 74.3094 116.188 71.5269C116.188 68.7594 117.471 66.6444 120.133 66.6444C121.318 66.6444 122.128 67.0644 122.616 67.9119V63.2919ZM120.553 74.7669C121.543 74.7669 122.293 74.2194 122.616 73.0494V70.1544C122.308 68.9319 121.611 68.3544 120.621 68.3544C119.173 68.3544 118.453 69.5919 118.453 71.5944C118.453 73.5819 119.136 74.7669 120.553 74.7669ZM131.519 65.6169C130.641 65.6169 130.019 65.0469 130.019 64.2219C130.019 63.4044 130.641 62.8194 131.519 62.8194C132.396 62.8194 133.019 63.4044 133.019 64.2219C133.019 65.0469 132.396 65.6169 131.519 65.6169ZM127.319 76.2444V74.5419H130.476V68.5794H127.319V66.8769H132.576V74.5419H135.689V76.2444H127.319ZM146.526 70.9794C146.526 71.3619 146.496 71.7594 146.429 72.1644H140.211C140.361 73.8069 141.171 74.7669 142.829 74.7669C143.909 74.7669 144.666 74.3919 145.304 73.6119L146.369 74.7669C145.491 75.9294 144.231 76.4844 142.641 76.4844C139.551 76.4844 138.059 74.4069 138.059 71.5344C138.059 68.6244 139.649 66.6444 142.521 66.6444C145.154 66.6444 146.526 68.3319 146.526 70.9794ZM142.506 68.2569C141.021 68.2569 140.414 69.2244 140.241 70.6419H144.471C144.494 69.2019 143.969 68.2569 142.506 68.2569ZM154.994 63.2919H157.094V76.2444H155.272L155.144 74.8569C154.627 75.9594 153.659 76.4844 152.392 76.4844C149.804 76.4844 148.567 74.3094 148.567 71.5269C148.567 68.7594 149.849 66.6444 152.512 66.6444C153.697 66.6444 154.507 67.0644 154.994 67.9119V63.2919ZM152.932 74.7669C153.922 74.7669 154.672 74.2194 154.994 73.0494V70.1544C154.687 68.9319 153.989 68.3544 152.999 68.3544C151.552 68.3544 150.832 69.5919 150.832 71.5944C150.832 73.5819 151.514 74.7669 152.932 74.7669ZM168.112 70.9794C168.112 71.3619 168.082 71.7594 168.015 72.1644H161.797C161.947 73.8069 162.757 74.7669 164.415 74.7669C165.495 74.7669 166.252 74.3919 166.89 73.6119L167.955 74.7669C167.077 75.9294 165.817 76.4844 164.227 76.4844C161.137 76.4844 159.645 74.4069 159.645 71.5344C159.645 68.6244 161.235 66.6444 164.107 66.6444C166.74 66.6444 168.112 68.3319 168.112 70.9794ZM164.092 68.2569C162.607 68.2569 162 69.2244 161.827 70.6419H166.057C166.08 69.2019 165.555 68.2569 164.092 68.2569ZM174.758 76.4844C172.755 76.4844 171.315 75.8544 170.625 74.2869L172.058 73.4319C172.53 74.3994 173.363 74.8869 174.788 74.8869C176.078 74.8869 176.79 74.4219 176.79 73.7544C176.79 73.0944 176.288 72.8169 175.013 72.5469L174.105 72.3519C172.043 71.9094 170.888 71.1594 170.888 69.4269C170.888 67.8219 172.298 66.6444 174.81 66.6444C176.828 66.6444 178.08 67.2744 178.688 68.7669L177.233 69.6219C176.775 68.6619 176.018 68.2494 174.735 68.2494C173.505 68.2494 172.845 68.6994 172.845 69.3594C172.845 69.9369 173.228 70.3044 174.533 70.5744L175.433 70.7694C177.585 71.2194 178.733 71.8569 178.733 73.6494C178.733 75.3144 177.263 76.4844 174.758 76.4844ZM185.483 65.6169C184.606 65.6169 183.983 65.0469 183.983 64.2219C183.983 63.4044 184.606 62.8194 185.483 62.8194C186.361 62.8194 186.983 63.4044 186.983 64.2219C186.983 65.0469 186.361 65.6169 185.483 65.6169ZM181.283 76.2444V74.5419H184.441V68.5794H181.283V66.8769H186.541V74.5419H189.653V76.2444H181.283ZM198.436 66.8769H200.266V75.5019C200.266 78.2619 198.744 79.8444 195.781 79.8444C194.206 79.8444 192.984 79.3794 191.994 78.4494L192.954 77.0394C193.764 77.7594 194.776 78.1494 195.721 78.1494C197.551 78.1494 198.271 77.2494 198.271 75.6519V74.5794C197.754 75.6594 196.816 76.1544 195.556 76.1544C192.976 76.1544 191.739 74.0694 191.739 71.3919C191.739 68.7369 193.014 66.6444 195.624 66.6444C196.944 66.6444 197.844 67.0944 198.339 68.1969L198.436 66.8769ZM196.104 74.4369C197.094 74.4369 197.844 73.9119 198.166 72.8019V70.0494C197.859 68.8944 197.161 68.3469 196.171 68.3469C194.724 68.3469 194.004 69.5169 194.004 71.4144C194.004 73.3044 194.686 74.4369 196.104 74.4369ZM207.962 66.6444C210.017 66.6444 211.119 67.7394 211.119 70.1319V76.2444H209.019V70.1694C209.019 69.0819 208.644 68.4519 207.497 68.4519C206.402 68.4519 205.502 69.0969 205.082 70.7769V76.2444H202.982V66.8769H204.872L204.954 68.5194C205.562 67.2069 206.567 66.6444 207.962 66.6444ZM215.447 72.1719V70.3869H220.247V72.1719H215.447ZM83.7302 98.6444C86.1602 98.6444 87.3977 100.587 87.3977 103.467C87.3977 106.407 86.0477 108.484 83.5277 108.484C82.4102 108.484 81.5552 108.042 81.0077 107.172V111.709H78.9077V98.8769H80.7902L80.8727 100.272C81.4577 99.1169 82.4252 98.6444 83.7302 98.6444ZM83.0702 106.767C84.4577 106.767 85.1777 105.529 85.1777 103.527C85.1777 101.644 84.5627 100.354 83.1152 100.354C82.1102 100.354 81.3302 100.932 81.0077 102.184V104.989C81.3377 106.167 82.0502 106.767 83.0702 106.767ZM94.9731 98.6369C96.9081 98.6369 97.8906 99.7844 97.8906 102.042C97.8906 102.552 97.8306 103.077 97.7106 103.654L95.5881 103.864C95.6781 103.294 95.7306 102.747 95.7306 102.177C95.7306 101.172 95.4681 100.452 94.3581 100.452C93.4131 100.452 92.6031 101.022 92.1981 102.754V108.244H90.0981V98.8769H91.9431L92.0406 100.647C92.5431 99.3644 93.4506 98.6369 94.9731 98.6369ZM109.186 106.677L109.224 108.177C108.849 108.312 108.489 108.379 108.009 108.379C107.011 108.379 106.419 108.004 106.209 107.209C105.646 108.087 104.641 108.484 103.329 108.484C101.356 108.484 100.141 107.367 100.141 105.657C100.141 103.947 101.386 102.904 103.726 102.904C104.671 102.904 105.436 103.069 106.111 103.429V102.222C106.111 100.819 105.489 100.272 104.289 100.272C103.179 100.272 102.631 100.714 102.496 101.832L100.471 101.562C100.711 99.6794 101.979 98.6444 104.319 98.6444C106.869 98.6444 108.106 99.8219 108.106 102.154V105.762C108.106 106.564 108.384 106.797 109.186 106.677ZM103.951 106.932C104.859 106.939 105.534 106.669 106.111 106.017V104.809C105.526 104.502 104.904 104.352 104.124 104.359C102.871 104.367 102.294 104.772 102.294 105.642C102.294 106.489 102.894 106.924 103.951 106.932ZM117.767 108.244L114.864 104.014L113.642 105.417V108.244H111.549V95.2919H113.642V103.152L117.354 98.8769H119.867L116.379 102.717L120.219 108.244H117.767ZM129.865 103.662C129.97 104.157 130.015 104.607 130.015 105.034C130.015 107.119 128.95 108.484 126.64 108.484C124.18 108.484 123.25 107.022 123.25 104.802V100.579H121.427V98.8769H123.25V96.1469L125.312 95.8244V98.8769H129.812V100.579H125.312V104.779C125.312 106.204 125.695 106.857 126.67 106.857C127.645 106.857 128.102 106.197 128.102 104.892C128.102 104.472 128.05 103.984 127.99 103.497L129.865 103.662ZM136.915 97.6169C136.037 97.6169 135.415 97.0469 135.415 96.2219C135.415 95.4044 136.037 94.8194 136.915 94.8194C137.792 94.8194 138.415 95.4044 138.415 96.2219C138.415 97.0469 137.792 97.6169 136.915 97.6169ZM132.715 108.244V106.542H135.873V100.579H132.715V98.8769H137.973V106.542H141.085V108.244H132.715ZM150.145 108.244L147.243 104.014L146.02 105.417V108.244H143.928V95.2919H146.02V103.152L149.733 98.8769H152.245L148.758 102.717L152.598 108.244H150.145ZM163.151 106.677L163.188 108.177C162.813 108.312 162.453 108.379 161.973 108.379C160.976 108.379 160.383 108.004 160.173 107.209C159.611 108.087 158.606 108.484 157.293 108.484C155.321 108.484 154.106 107.367 154.106 105.657C154.106 103.947 155.351 102.904 157.691 102.904C158.636 102.904 159.401 103.069 160.076 103.429V102.222C160.076 100.819 159.453 100.272 158.253 100.272C157.143 100.272 156.596 100.714 156.461 101.832L154.436 101.562C154.676 99.6794 155.943 98.6444 158.283 98.6444C160.833 98.6444 162.071 99.8219 162.071 102.154V105.762C162.071 106.564 162.348 106.797 163.151 106.677ZM157.916 106.932C158.823 106.939 159.498 106.669 160.076 106.017V104.809C159.491 104.502 158.868 104.352 158.088 104.359C156.836 104.367 156.258 104.772 156.258 105.642C156.258 106.489 156.858 106.924 157.916 106.932ZM170.186 98.6444C172.241 98.6444 173.344 99.7394 173.344 102.132V108.244H171.244V102.169C171.244 101.082 170.869 100.452 169.721 100.452C168.626 100.452 167.726 101.097 167.306 102.777V108.244H165.206V98.8769H167.096L167.179 100.519C167.786 99.2069 168.791 98.6444 170.186 98.6444ZM183.829 103.662C183.934 104.157 183.979 104.607 183.979 105.034C183.979 107.119 182.914 108.484 180.604 108.484C178.144 108.484 177.214 107.022 177.214 104.802V100.579H175.392V98.8769H177.214V96.1469L179.277 95.8244V98.8769H183.777V100.579H179.277V104.779C179.277 106.204 179.659 106.857 180.634 106.857C181.609 106.857 182.067 106.197 182.067 104.892C182.067 104.472 182.014 103.984 181.954 103.497L183.829 103.662Z" fill="#0F342C"/>
</svg>
