<svg width="250" height="151" viewBox="0 0 250 151" fill="none" xmlns="http://www.w3.org/2000/svg">
<path fill-rule="evenodd" clip-rule="evenodd" d="M135.828 12.8193C165.115 10.3631 196.027 -9.07436 220.351 5.79611C245.895 21.412 253.406 54.3536 248.662 81.7986C244.396 106.475 220.649 123.408 197.609 137.352C179.388 148.378 157.784 149.563 135.828 150.081C112.964 150.62 90.6816 150.381 70.7191 140.344C41.6524 125.729 1.25778 111.724 0.0290781 81.7986C-1.19923 51.883 36.7404 33.4883 65.7272 18.7645C86.9712 7.97356 111.534 14.8569 135.828 12.8193Z" fill="#BCECE2"/>
<path d="M39.0863 61.2444V48.9969H41.8613L42.9038 52.8144C43.1588 53.7369 43.4063 54.6894 43.6238 55.6569H43.6463C43.8637 54.6894 44.1113 53.7369 44.3662 52.8144L45.4088 48.9969H48.1838V61.2444H46.3388V51.4419H46.3313C46.0687 52.4244 45.8738 53.1219 45.6038 54.0594L44.2988 58.5594H42.9713L41.6663 54.0594C41.3963 53.1219 41.2013 52.4244 40.9388 51.4419H40.9313V61.2444H39.0863ZM56.3217 51.8844H58.4217V61.2519H56.5317L56.4342 59.5794C55.8342 60.9069 54.8142 61.4844 53.3892 61.4844C51.3642 61.4844 50.2842 60.3744 50.2842 57.9894V51.8844H52.3842V57.9519C52.3842 59.0394 52.7517 59.6694 53.8917 59.6694C54.9492 59.6694 55.8417 59.1444 56.3217 57.7569V51.8844ZM60.9572 61.2444V59.5419H64.1147V50.0019H60.9572V48.2919H66.2147V59.5419H69.3272V61.2444H60.9572ZM79.6927 56.6619C79.7977 57.1569 79.8427 57.6069 79.8427 58.0344C79.8427 60.1194 78.7777 61.4844 76.4677 61.4844C74.0077 61.4844 73.0777 60.0219 73.0777 57.8019V53.5794H71.2552V51.8769H73.0777V49.1469L75.1402 48.8244V51.8769H79.6402V53.5794H75.1402V57.7794C75.1402 59.2044 75.5227 59.8569 76.4977 59.8569C77.4727 59.8569 77.9302 59.1969 77.9302 57.8919C77.9302 57.4719 77.8777 56.9844 77.8177 56.4969L79.6927 56.6619ZM86.7431 50.6169C85.8656 50.6169 85.2431 50.0469 85.2431 49.2219C85.2431 48.4044 85.8656 47.8194 86.7431 47.8194C87.6206 47.8194 88.2431 48.4044 88.2431 49.2219C88.2431 50.0469 87.6206 50.6169 86.7431 50.6169ZM82.5431 61.2444V59.5419H85.7006V53.5794H82.5431V51.8769H87.8006V59.5419H90.9131V61.2444H82.5431ZM100.109 51.6444C101.541 51.6444 102.089 52.6644 102.089 54.5244V61.2444H100.199V54.6219C100.199 53.7444 99.9661 53.4069 99.4936 53.4069C99.0736 53.4069 98.7436 53.6544 98.5336 54.3294V54.5244V61.2444H96.6361V54.6219C96.6361 53.7444 96.4036 53.4069 95.9386 53.4069C95.5261 53.4069 95.1886 53.6394 94.9711 54.2994V61.2444H93.0811V51.8769H94.6936L94.7461 52.7694C95.1436 51.9519 95.7736 51.6444 96.5611 51.6444C97.4536 51.6444 98.0011 52.0419 98.2861 52.7919C98.6686 51.9594 99.2986 51.6444 100.109 51.6444ZM112.544 55.9794C112.544 56.3619 112.514 56.7594 112.447 57.1644H106.229C106.379 58.8069 107.189 59.7669 108.847 59.7669C109.927 59.7669 110.684 59.3919 111.322 58.6119L112.387 59.7669C111.509 60.9294 110.249 61.4844 108.659 61.4844C105.569 61.4844 104.077 59.4069 104.077 56.5344C104.077 53.6244 105.667 51.6444 108.539 51.6444C111.172 51.6444 112.544 53.3319 112.544 55.9794ZM108.524 53.2569C107.039 53.2569 106.432 54.2244 106.259 55.6419H110.489C110.512 54.2019 109.987 53.2569 108.524 53.2569ZM121.012 48.2919H123.112V61.2444H121.29L121.162 59.8569C120.645 60.9594 119.677 61.4844 118.41 61.4844C115.822 61.4844 114.585 59.3094 114.585 56.5269C114.585 53.7594 115.867 51.6444 118.53 51.6444C119.715 51.6444 120.525 52.0644 121.012 52.9119V48.2919ZM118.95 59.7669C119.94 59.7669 120.69 59.2194 121.012 58.0494V55.1544C120.705 53.9319 120.007 53.3544 119.017 53.3544C117.57 53.3544 116.85 54.5919 116.85 56.5944C116.85 58.5819 117.532 59.7669 118.95 59.7669ZM129.915 50.6169C129.037 50.6169 128.415 50.0469 128.415 49.2219C128.415 48.4044 129.037 47.8194 129.915 47.8194C130.792 47.8194 131.415 48.4044 131.415 49.2219C131.415 50.0469 130.792 50.6169 129.915 50.6169ZM125.715 61.2444V59.5419H128.873V53.5794H125.715V51.8769H130.973V59.5419H134.085V61.2444H125.715ZM144.923 55.9794C144.923 56.3619 144.893 56.7594 144.825 57.1644H138.608C138.758 58.8069 139.568 59.7669 141.225 59.7669C142.305 59.7669 143.063 59.3919 143.7 58.6119L144.765 59.7669C143.888 60.9294 142.628 61.4844 141.038 61.4844C137.948 61.4844 136.455 59.4069 136.455 56.5344C136.455 53.6244 138.045 51.6444 140.918 51.6444C143.55 51.6444 144.923 53.3319 144.923 55.9794ZM140.903 53.2569C139.418 53.2569 138.81 54.2244 138.638 55.6419H142.868C142.89 54.2019 142.365 53.2569 140.903 53.2569ZM153.391 48.2919H155.491V61.2444H153.668L153.541 59.8569C153.023 60.9594 152.056 61.4844 150.788 61.4844C148.201 61.4844 146.963 59.3094 146.963 56.5269C146.963 53.7594 148.246 51.6444 150.908 51.6444C152.093 51.6444 152.903 52.0644 153.391 52.9119V48.2919ZM151.328 59.7669C152.318 59.7669 153.068 59.2194 153.391 58.0494V55.1544C153.083 53.9319 152.386 53.3544 151.396 53.3544C149.948 53.3544 149.228 54.5919 149.228 56.5944C149.228 58.5819 149.911 59.7669 151.328 59.7669ZM166.509 55.9794C166.509 56.3619 166.479 56.7594 166.411 57.1644H160.194C160.344 58.8069 161.154 59.7669 162.811 59.7669C163.891 59.7669 164.649 59.3919 165.286 58.6119L166.351 59.7669C165.474 60.9294 164.214 61.4844 162.624 61.4844C159.534 61.4844 158.041 59.4069 158.041 56.5344C158.041 53.6244 159.631 51.6444 162.504 51.6444C165.136 51.6444 166.509 53.3319 166.509 55.9794ZM162.489 53.2569C161.004 53.2569 160.396 54.2244 160.224 55.6419H164.454C164.476 54.2019 163.951 53.2569 162.489 53.2569ZM173.154 61.4844C171.152 61.4844 169.712 60.8544 169.022 59.2869L170.454 58.4319C170.927 59.3994 171.759 59.8869 173.184 59.8869C174.474 59.8869 175.187 59.4219 175.187 58.7544C175.187 58.0944 174.684 57.8169 173.409 57.5469L172.502 57.3519C170.439 56.9094 169.284 56.1594 169.284 54.4269C169.284 52.8219 170.694 51.6444 173.207 51.6444C175.224 51.6444 176.477 52.2744 177.084 53.7669L175.629 54.6219C175.172 53.6619 174.414 53.2494 173.132 53.2494C171.902 53.2494 171.242 53.6994 171.242 54.3594C171.242 54.9369 171.624 55.3044 172.929 55.5744L173.829 55.7694C175.982 56.2194 177.129 56.8569 177.129 58.6494C177.129 60.3144 175.659 61.4844 173.154 61.4844ZM183.88 50.6169C183.002 50.6169 182.38 50.0469 182.38 49.2219C182.38 48.4044 183.002 47.8194 183.88 47.8194C184.757 47.8194 185.38 48.4044 185.38 49.2219C185.38 50.0469 184.757 50.6169 183.88 50.6169ZM179.68 61.2444V59.5419H182.837V53.5794H179.68V51.8769H184.937V59.5419H188.05V61.2444H179.68ZM196.833 51.8769H198.663V60.5019C198.663 63.2619 197.14 64.8444 194.178 64.8444C192.603 64.8444 191.38 64.3794 190.39 63.4494L191.35 62.0394C192.16 62.7594 193.173 63.1494 194.118 63.1494C195.948 63.1494 196.668 62.2494 196.668 60.6519V59.5794C196.15 60.6594 195.213 61.1544 193.953 61.1544C191.373 61.1544 190.135 59.0694 190.135 56.3919C190.135 53.7369 191.41 51.6444 194.02 51.6444C195.34 51.6444 196.24 52.0944 196.735 53.1969L196.833 51.8769ZM194.5 59.4369C195.49 59.4369 196.24 58.9119 196.563 57.8019V55.0494C196.255 53.8944 195.558 53.3469 194.568 53.3469C193.12 53.3469 192.4 54.5169 192.4 56.4144C192.4 58.3044 193.083 59.4369 194.5 59.4369ZM206.358 51.6444C208.413 51.6444 209.516 52.7394 209.516 55.1319V61.2444H207.416V55.1694C207.416 54.0819 207.041 53.4519 205.893 53.4519C204.798 53.4519 203.898 54.0969 203.478 55.7769V61.2444H201.378V51.8769H203.268L203.351 53.5194C203.958 52.2069 204.963 51.6444 206.358 51.6444ZM33.5583 83.6444C35.9883 83.6444 37.2258 85.5869 37.2258 88.4669C37.2258 91.4069 35.8758 93.4844 33.3558 93.4844C32.2383 93.4844 31.3833 93.0419 30.8358 92.1719V96.7094H28.7358V83.8769H30.6183L30.7008 85.2719C31.2858 84.1169 32.2533 83.6444 33.5583 83.6444ZM32.8983 91.7669C34.2858 91.7669 35.0058 90.5294 35.0058 88.5269C35.0058 86.6444 34.3908 85.3544 32.9433 85.3544C31.9383 85.3544 31.1583 85.9319 30.8358 87.1844V89.9894C31.1658 91.1669 31.8783 91.7669 32.8983 91.7669ZM43.4438 82.9769C42.3338 82.9769 41.5312 82.4294 41.5312 81.3194C41.5312 80.2169 42.3338 79.6619 43.4438 79.6619C44.5613 79.6619 45.3713 80.2169 45.3713 81.3194C45.3713 82.4294 44.5613 82.9769 43.4438 82.9769ZM43.4438 80.5544C43.0163 80.5544 42.7237 80.8244 42.7237 81.3194C42.7237 81.8294 43.0163 82.0919 43.4438 82.0919C43.8712 82.0919 44.1638 81.8294 44.1638 81.3194C44.1638 80.8244 43.8712 80.5544 43.4438 80.5544ZM48.2213 91.6769L48.2588 93.1769C47.8837 93.3119 47.5238 93.3794 47.0438 93.3794C46.0462 93.3794 45.4538 93.0044 45.2438 92.2094C44.6813 93.0869 43.6763 93.4844 42.3638 93.4844C40.3913 93.4844 39.1763 92.3669 39.1763 90.6569C39.1763 88.9469 40.4212 87.9044 42.7612 87.9044C43.7063 87.9044 44.4713 88.0694 45.1463 88.4294V87.2219C45.1463 85.8194 44.5238 85.2719 43.3237 85.2719C42.2138 85.2719 41.6663 85.7144 41.5312 86.8319L39.5063 86.5619C39.7463 84.6794 41.0137 83.6444 43.3537 83.6444C45.9038 83.6444 47.1413 84.8219 47.1413 87.1544V90.7619C47.1413 91.5644 47.4188 91.7969 48.2213 91.6769ZM42.9863 91.9319C43.8937 91.9394 44.5688 91.6694 45.1463 91.0169V89.8094C44.5613 89.5019 43.9388 89.3519 43.1588 89.3594C41.9063 89.3669 41.3288 89.7719 41.3288 90.6419C41.3288 91.4894 41.9288 91.9244 42.9863 91.9319ZM61.4372 93.2444V80.9969H69.1097V82.8344H63.6422V86.0669H68.5097V87.8444H63.6422V91.3994H69.1097V93.2444H61.4372ZM77.1802 83.6369C79.1152 83.6369 80.0977 84.7844 80.0977 87.0419C80.0977 87.5519 80.0377 88.0769 79.9177 88.6544L77.7952 88.8644C77.8852 88.2944 77.9377 87.7469 77.9377 87.1769C77.9377 86.1719 77.6752 85.4519 76.5652 85.4519C75.6202 85.4519 74.8102 86.0219 74.4052 87.7544V93.2444H72.3052V83.8769H74.1502L74.2477 85.6469C74.7502 84.3644 75.6577 83.6369 77.1802 83.6369ZM87.6656 83.6444C89.7056 83.6444 90.7931 84.7319 90.7931 87.1094V93.2444H88.6931V87.1619C88.6931 86.0744 88.3256 85.4519 87.1781 85.4519C86.0906 85.4519 85.1831 86.0819 84.7556 87.7844V93.2444H82.6556V80.2919H84.7556V85.3619C85.3556 84.1619 86.3381 83.6444 87.6656 83.6444ZM96.0061 93.2444L92.8711 83.8769H95.2336L96.6736 88.6919C96.9586 89.6444 97.1686 90.5219 97.5061 91.7594H97.5361C97.8736 90.5219 98.0836 89.6444 98.3686 88.6919L99.8086 83.8769H102.171L99.0361 93.2444H96.0061ZM112.544 87.9794C112.544 88.3619 112.514 88.7594 112.447 89.1644H106.229C106.379 90.8069 107.189 91.7669 108.847 91.7669C109.927 91.7669 110.684 91.3919 111.322 90.6119L112.387 91.7669C111.509 92.9294 110.249 93.4844 108.659 93.4844C105.569 93.4844 104.077 91.4069 104.077 88.5344C104.077 85.6244 105.667 83.6444 108.539 83.6444C111.172 83.6444 112.544 85.3319 112.544 87.9794ZM108.524 85.2569C107.039 85.2569 106.432 86.2244 106.259 87.6419H110.489C110.512 86.2019 109.987 85.2569 108.524 85.2569ZM120.352 83.6369C122.287 83.6369 123.27 84.7844 123.27 87.0419C123.27 87.5519 123.21 88.0769 123.09 88.6544L120.967 88.8644C121.057 88.2944 121.11 87.7469 121.11 87.1769C121.11 86.1719 120.847 85.4519 119.737 85.4519C118.792 85.4519 117.982 86.0219 117.577 87.7544V93.2444H115.477V83.8769H117.322L117.42 85.6469C117.922 84.3644 118.83 83.6369 120.352 83.6369ZM128.385 93.2444L125.25 83.8769H127.612L129.052 88.6919C129.338 89.6444 129.548 90.5219 129.885 91.7594H129.915C130.252 90.5219 130.463 89.6444 130.747 88.6919L132.188 83.8769H134.55L131.415 93.2444H128.385ZM140.775 93.4844C138.773 93.4844 137.333 92.8544 136.643 91.2869L138.075 90.4319C138.548 91.3994 139.38 91.8869 140.805 91.8869C142.095 91.8869 142.808 91.4219 142.808 90.7544C142.808 90.0944 142.305 89.8169 141.03 89.5469L140.123 89.3519C138.06 88.9094 136.905 88.1594 136.905 86.4269C136.905 84.8219 138.315 83.6444 140.828 83.6444C142.845 83.6444 144.098 84.2744 144.705 85.7669L143.25 86.6219C142.793 85.6619 142.035 85.2494 140.753 85.2494C139.523 85.2494 138.863 85.6994 138.863 86.3594C138.863 86.9369 139.245 87.3044 140.55 87.5744L141.45 87.7694C143.603 88.2194 144.75 88.8569 144.75 90.6494C144.75 92.3144 143.28 93.4844 140.775 93.4844ZM156.151 91.6769L156.188 93.1769C155.813 93.3119 155.453 93.3794 154.973 93.3794C153.976 93.3794 153.383 93.0044 153.173 92.2094C152.611 93.0869 151.606 93.4844 150.293 93.4844C148.321 93.4844 147.106 92.3669 147.106 90.6569C147.106 88.9469 148.351 87.9044 150.691 87.9044C151.636 87.9044 152.401 88.0694 153.076 88.4294V87.2219C153.076 85.8194 152.453 85.2719 151.253 85.2719C150.143 85.2719 149.596 85.7144 149.461 86.8319L147.436 86.5619C147.676 84.6794 148.943 83.6444 151.283 83.6444C153.833 83.6444 155.071 84.8219 155.071 87.1544V90.7619C155.071 91.5644 155.348 91.7969 156.151 91.6769ZM150.916 91.9319C151.823 91.9394 152.498 91.6694 153.076 91.0169V89.8094C152.491 89.5019 151.868 89.3519 151.088 89.3594C149.836 89.3669 149.258 89.7719 149.258 90.6419C149.258 91.4894 149.858 91.9244 150.916 91.9319ZM164.731 93.2444L161.829 89.0144L160.606 90.4169V93.2444H158.514V80.2919H160.606V88.1519L164.319 83.8769H166.831L163.344 87.7169L167.184 93.2444H164.731ZM177.737 91.6769L177.774 93.1769C177.399 93.3119 177.039 93.3794 176.559 93.3794C175.562 93.3794 174.969 93.0044 174.759 92.2094C174.197 93.0869 173.192 93.4844 171.879 93.4844C169.907 93.4844 168.692 92.3669 168.692 90.6569C168.692 88.9469 169.937 87.9044 172.277 87.9044C173.222 87.9044 173.987 88.0694 174.662 88.4294V87.2219C174.662 85.8194 174.039 85.2719 172.839 85.2719C171.729 85.2719 171.182 85.7144 171.047 86.8319L169.022 86.5619C169.262 84.6794 170.529 83.6444 172.869 83.6444C175.419 83.6444 176.657 84.8219 176.657 87.1544V90.7619C176.657 91.5644 176.934 91.7969 177.737 91.6769ZM172.502 91.9319C173.409 91.9394 174.084 91.6694 174.662 91.0169V89.8094C174.077 89.5019 173.454 89.3519 172.674 89.3594C171.422 89.3669 170.844 89.7719 170.844 90.6419C170.844 91.4894 171.444 91.9244 172.502 91.9319ZM185.77 80.2919H187.87V93.2444H186.047L185.92 91.8569C185.402 92.9594 184.435 93.4844 183.167 93.4844C180.58 93.4844 179.342 91.3094 179.342 88.5269C179.342 85.7594 180.625 83.6444 183.287 83.6444C184.472 83.6444 185.282 84.0644 185.77 84.9119V80.2919ZM183.707 91.7669C184.697 91.7669 185.447 91.2194 185.77 90.0494V87.1544C185.462 85.9319 184.765 85.3544 183.775 85.3544C182.327 85.3544 181.607 86.5919 181.607 88.5944C181.607 90.5819 182.29 91.7669 183.707 91.7669ZM198.888 87.9794C198.888 88.3619 198.858 88.7594 198.79 89.1644H192.573C192.723 90.8069 193.533 91.7669 195.19 91.7669C196.27 91.7669 197.028 91.3919 197.665 90.6119L198.73 91.7669C197.853 92.9294 196.593 93.4844 195.003 93.4844C191.913 93.4844 190.42 91.4069 190.42 88.5344C190.42 85.6244 192.01 83.6444 194.883 83.6444C197.515 83.6444 198.888 85.3319 198.888 87.9794ZM194.868 85.2569C193.383 85.2569 192.775 86.2244 192.603 87.6419H196.833C196.855 86.2019 196.33 85.2569 194.868 85.2569ZM208.038 83.6444C209.471 83.6444 210.018 84.6644 210.018 86.5244V93.2444H208.128V86.6219C208.128 85.7444 207.896 85.4069 207.423 85.4069C207.003 85.4069 206.673 85.6544 206.463 86.3294V86.5244V93.2444H204.566V86.6219C204.566 85.7444 204.333 85.4069 203.868 85.4069C203.456 85.4069 203.118 85.6394 202.901 86.2994V93.2444H201.011V83.8769H202.623L202.676 84.7694C203.073 83.9519 203.703 83.6444 204.491 83.6444C205.383 83.6444 205.931 84.0419 206.216 84.7919C206.598 83.9594 207.228 83.6444 208.038 83.6444ZM216.259 82.6169C215.381 82.6169 214.759 82.0469 214.759 81.2219C214.759 80.4044 215.381 79.8194 216.259 79.8194C217.136 79.8194 217.759 80.4044 217.759 81.2219C217.759 82.0469 217.136 82.6169 216.259 82.6169ZM212.059 93.2444V91.5419H215.216V85.5794H212.059V83.8769H217.316V91.5419H220.429V93.2444H212.059ZM100.214 125.244L99.4711 122.417H95.5711L94.8286 125.244H92.5936L95.9386 112.997H99.1036L102.449 125.244H100.214ZM96.0436 120.594H98.9986L98.6086 119.117C98.2186 117.624 97.9336 116.454 97.5436 114.782H97.4986C97.1086 116.454 96.8311 117.624 96.4336 119.117L96.0436 120.594ZM112.979 123.677L113.017 125.177C112.642 125.312 112.282 125.379 111.802 125.379C110.804 125.379 110.212 125.004 110.002 124.209C109.439 125.087 108.434 125.484 107.122 125.484C105.149 125.484 103.934 124.367 103.934 122.657C103.934 120.947 105.179 119.904 107.519 119.904C108.464 119.904 109.229 120.069 109.904 120.429V119.222C109.904 117.819 109.282 117.272 108.082 117.272C106.972 117.272 106.424 117.714 106.289 118.832L104.264 118.562C104.504 116.679 105.772 115.644 108.112 115.644C110.662 115.644 111.899 116.822 111.899 119.154V122.762C111.899 123.564 112.177 123.797 112.979 123.677ZM107.744 123.932C108.652 123.939 109.327 123.669 109.904 123.017V121.809C109.319 121.502 108.697 121.352 107.917 121.359C106.664 121.367 106.087 121.772 106.087 122.642C106.087 123.489 106.687 123.924 107.744 123.932ZM120.352 115.637C122.287 115.637 123.27 116.784 123.27 119.042C123.27 119.552 123.21 120.077 123.09 120.654L120.967 120.864C121.057 120.294 121.11 119.747 121.11 119.177C121.11 118.172 120.847 117.452 119.737 117.452C118.792 117.452 117.982 118.022 117.577 119.754V125.244H115.477V115.877H117.322L117.42 117.647C117.922 116.364 118.83 115.637 120.352 115.637ZM130.838 115.644C132.878 115.644 133.965 116.732 133.965 119.109V125.244H131.865V119.162C131.865 118.074 131.498 117.452 130.35 117.452C129.263 117.452 128.355 118.082 127.927 119.784V125.244H125.828V112.292H127.927V117.362C128.528 116.162 129.51 115.644 130.838 115.644ZM142.665 115.884H144.765V125.252H142.875L142.778 123.579C142.178 124.907 141.158 125.484 139.733 125.484C137.708 125.484 136.628 124.374 136.628 121.989V115.884H138.728V121.952C138.728 123.039 139.095 123.669 140.235 123.669C141.293 123.669 142.185 123.144 142.665 121.757V115.884ZM151.568 125.484C149.566 125.484 148.126 124.854 147.436 123.287L148.868 122.432C149.341 123.399 150.173 123.887 151.598 123.887C152.888 123.887 153.601 123.422 153.601 122.754C153.601 122.094 153.098 121.817 151.823 121.547L150.916 121.352C148.853 120.909 147.698 120.159 147.698 118.427C147.698 116.822 149.108 115.644 151.621 115.644C153.638 115.644 154.891 116.274 155.498 117.767L154.043 118.622C153.586 117.662 152.828 117.249 151.546 117.249C150.316 117.249 149.656 117.699 149.656 118.359C149.656 118.937 150.038 119.304 151.343 119.574L152.243 119.769C154.396 120.219 155.543 120.857 155.543 122.649C155.543 124.314 154.073 125.484 151.568 125.484Z" fill="#0F342C"/>
</svg>
