<svg width="505" height="541" viewBox="0 0 505 541" fill="none" xmlns="http://www.w3.org/2000/svg">
<path fill-rule="evenodd" clip-rule="evenodd" d="M256.062 23.6868C311.946 15.0784 371.192 -16.3767 420.989 10.9068C471.73 38.7082 506.221 101.294 504.967 160.063C503.775 215.921 428.444 241.159 414.92 295.298C399.619 356.555 459.211 427.291 425.045 480.017C391.293 532.105 317.153 543.873 256.062 540.454C196.692 537.132 145.888 500.457 100.028 461.827C56.6827 425.316 13.5959 382.958 2.36246 326.753C-8.36545 273.077 19.6494 221.419 42.0267 171.627C61.8465 127.525 84.3689 83.9025 123.729 56.697C162.272 30.0564 210.035 30.7769 256.062 23.6868Z" fill="#BCECE2"/>
</svg>
